<?xml version="1.0" encoding="UTF-8"?>
<svg version="1.1" xmlns="http://www.w3.org/2000/svg" width="317" height="288">
<path d="M0 0 C104.61 0 209.22 0 317 0 C317 95.04 317 190.08 317 288 C212.39 288 107.78 288 0 288 C0 192.96 0 97.92 0 0 Z " fill="#F9F9F9" transform="translate(0,0)"/>
<path d="M0 0 C15.51 0 31.02 0 47 0 C49.64257463 9.90965488 52.1226789 19.74630825 54.3125 29.75 C56.75716414 40.79393795 59.38968771 51.766059 62.33911133 62.68847656 C64.30450373 70.04457277 66.0313547 77.43994337 67.72265625 84.86328125 C69.98659042 94.78036919 72.37801723 104.66077986 74.8671875 114.5234375 C75.11308908 115.4989195 75.11308908 115.4989195 75.36395836 116.4941082 C76.87714773 122.49477443 78.39686019 128.49377975 79.92089844 134.49169922 C80.60445491 137.18276117 81.2855027 139.87443527 81.96389771 142.56680298 C82.59420939 145.06747552 83.22837263 147.56718131 83.86691284 150.06576538 C84.14785797 151.18278839 84.4288031 152.2998114 84.71826172 153.45068359 C84.96663788 154.42927338 85.21501404 155.40786316 85.47091675 156.41610718 C86 159 86 159 86 163 C86.66 163 87.32 163 88 163 C88.11128235 161.7403392 88.2225647 160.48067841 88.33721924 159.18284607 C88.95317315 153.6809723 90.23239911 148.43029502 91.60449219 143.07446289 C91.86970673 142.01941559 92.13492126 140.96436829 92.40817261 139.87734985 C93.28196583 136.40763201 94.16427892 132.94014439 95.046875 129.47265625 C95.66169542 127.04010973 96.27604723 124.60744472 96.88995361 122.17466736 C98.17754761 117.07734838 99.46889695 111.98099705 100.76367188 106.88549805 C102.41118147 100.4017357 104.05124997 93.91611918 105.68891525 87.42986393 C106.95855197 82.40261577 108.23059022 77.37597787 109.50345612 72.34954643 C110.10819359 69.96140257 110.71252839 67.57315669 111.31642914 65.1848011 C114.40044173 52.99761642 117.53436873 40.83451877 120.96165466 28.73890686 C122.55951463 22.98528194 123.94882851 17.18835251 125.3125 11.375 C126.199375 7.62125 127.08625 3.8675 128 0 C142.19 0 156.38 0 171 0 C175.17109065 14.3315972 179.00869598 28.69228723 182.5625 43.1875 C185.33843876 54.48666071 188.15956886 65.75634927 191.31764221 76.95549011 C193.07633215 83.20796317 194.59488863 89.49739639 196.02734375 95.83203125 C197.31090523 101.38232815 198.78340956 106.8618705 200.328125 112.34375 C203.18769945 122.50892205 205.72629317 132.74720593 208.25 143 C209.1274987 146.56317653 210.00814489 150.1255544 210.890625 153.6875 C211.08851624 154.49566162 211.28640747 155.30382324 211.49029541 156.13647461 C212.45204792 160.17037026 212.45204792 160.17037026 214 164 C214.12938965 163.40203613 214.2587793 162.80407227 214.39208984 162.18798828 C217.71947178 146.87631912 221.23972383 131.61608392 224.875 116.375 C225.08932678 115.47612061 225.30365356 114.57724121 225.5244751 113.65112305 C227.72923672 104.41255454 229.9494835 95.17798955 232.2109375 85.953125 C235.56849687 72.24853479 238.80607519 58.53845262 241.69873047 44.72607422 C244.85458332 29.75246796 248.46121981 14.8872822 252 0 C267.51 0 283.02 0 299 0 C296.59217161 10.23327066 294.1687826 20.41431502 291.46875 30.56640625 C290.99205872 32.37116676 290.99205872 32.37116676 290.5057373 34.21238708 C289.50597943 37.99633192 288.50321054 41.77946924 287.5 45.5625 C282.19378091 65.52209776 282.19378091 65.52209776 277.109375 85.53881836 C275.56606835 91.77291116 273.97410785 97.9947704 272.390625 104.21875 C272.05665548 105.53200896 271.72270176 106.84527193 271.38876343 108.15853882 C270.6981285 110.87442266 270.00738667 113.59027929 269.31658936 116.30612183 C262.93803354 141.3849874 256.57963462 166.46821325 250.37109375 191.58984375 C247.75615053 202.14721322 245.05123193 212.66241625 242.078125 223.125 C240.98205007 227.06451571 239.99176504 231.03293983 239 235 C222.83 235 206.66 235 190 235 C186.76129945 222.59104622 183.52269473 210.18207296 180.28739929 197.77223206 C178.58156236 191.22933611 178.58156236 191.22933611 176.87353516 184.68701172 C173.10341348 170.25333107 169.42381428 155.79953514 165.83886719 141.31884766 C163.9698825 133.79169061 162.02635839 126.28926716 160.01538086 118.79882812 C158.44227189 112.91338075 156.91341081 107.01667632 155.39013672 101.11816406 C154.86968146 99.10442155 154.3469572 97.09127587 153.82421875 95.078125 C153.48423658 93.76305661 153.14438797 92.44795368 152.8046875 91.1328125 C152.35585205 89.39862061 152.35585205 89.39862061 151.89794922 87.62939453 C150.8600513 83.43434548 149.9193253 79.22235603 149 75 C148.76200684 76.17216064 148.52401367 77.34432129 148.27880859 78.55200195 C146.18579483 88.74487344 143.86430533 98.83940266 141.22393799 108.90359497 C140.13922375 113.03989015 139.06974525 117.18012503 138 121.3203125 C137.76705231 122.22111038 137.53410461 123.12190826 137.2940979 124.05000305 C135.28201745 131.85437907 133.32297161 139.67159004 131.375 147.4921875 C131.06476898 148.73738663 130.75453796 149.98258575 130.43490601 151.26551819 C129.19265597 156.25511981 127.95150255 161.24498616 126.71466064 166.2359314 C120.95153645 189.4897609 120.95153645 189.4897609 117.85400391 200.03588867 C116.39084505 205.11427965 115.13620748 210.24342037 113.875 215.375 C113.62363281 216.38949219 113.37226562 217.40398437 113.11328125 218.44921875 C112.64583289 220.33614379 112.17936806 222.22331306 111.71435547 224.11083984 C110.8164703 227.7422729 109.90727465 231.37090141 109 235 C93.16 235 77.32 235 61 235 C55.27255985 214.38121547 55.27255985 214.38121547 53.0625 205.8125 C52.81508057 204.85964111 52.56766113 203.90678223 52.31274414 202.92504883 C51.2827359 198.95810325 50.25625002 194.99024882 49.22949219 191.02246094 C46.68121494 181.18228996 44.12506401 171.34849474 41.375 161.5625 C39.26882806 154.06502413 37.33699059 146.5346352 35.48388672 138.9710083 C34.66451729 135.63348345 33.83156648 132.29934651 33 128.96484375 C32.66664229 127.6269592 32.33330894 126.28906858 32 124.95117188 C31.835 124.28915771 31.67 123.62714355 31.5 122.94506836 C31.16624679 121.60500359 30.83291448 120.26483393 30.5 118.92456055 C28.44062312 110.63576971 26.30860871 102.37223379 24.09375 94.12329102 C21.57048059 84.66466783 19.19730218 75.16574758 16.78173828 65.67919922 C14.22533386 55.64378499 11.6495625 45.61620491 8.96484375 35.61425781 C7.37108298 29.64410741 5.82423067 23.66190462 4.28027344 17.67871094 C3.73764045 15.57713235 3.19305087 13.47606615 2.6484375 11.375 C2.30196586 10.03388451 1.95560708 8.69273986 1.609375 7.3515625 C1.29967773 6.15354004 0.98998047 4.95551758 0.67089844 3.72119141 C0 1 0 1 0 0 Z " fill="#121212" transform="translate(6,21)"/>
<path d="M0 0 C15.51 0 31.02 0 47 0 C47 1.65 47 3.3 47 5 C46.505 3.515 46.505 3.515 46 2 C31.81 2 17.62 2 3 2 C3 3.32 3 4.64 3 6 C2.34 6 1.68 6 1 6 C0.67 4.02 0.34 2.04 0 0 Z " fill="#040404" transform="translate(6,21)"/>
<path d="M0 0 C15.51 0 31.02 0 47 0 C46.34 1.65 45.68 3.3 45 5 C44.505 3.515 44.505 3.515 44 2 C38.05489199 2.09337866 32.11019881 2.19943682 26.16552734 2.31738281 C24.14215334 2.35572521 22.11870994 2.39056871 20.09521484 2.421875 C17.19082797 2.46741169 14.28692106 2.52542409 11.3828125 2.5859375 C10.47443634 2.59748871 9.56606018 2.60903992 8.63015747 2.62094116 C7.36907669 2.6507457 7.36907669 2.6507457 6.08251953 2.68115234 C5.34083527 2.69447601 4.599151 2.70779968 3.83499146 2.7215271 C1.7526636 2.85199729 1.7526636 2.85199729 0 5 C0 3.35 0 1.7 0 0 Z " fill="#040404" transform="translate(258,21)"/>
<path d="M0 0 C0.99 0 1.98 0 3 0 C2.25749403 4.08378283 1.17076699 8.01939223 0 12 C-0.66 12 -1.32 12 -2 12 C-1 3.42857143 -1 3.42857143 0 0 Z " fill="#1C1C1C" transform="translate(97,167)"/>
<path d="M0 0 C1.88391785 3.26545761 2.49287967 6.28111761 3 10 C2.01 10.66 1.02 11.32 0 12 C-0.19573608 10.56359829 -0.38127816 9.12580496 -0.5625 7.6875 C-0.66691406 6.88699219 -0.77132812 6.08648437 -0.87890625 5.26171875 C-1 3 -1 3 0 0 Z " fill="#222222" transform="translate(196,96)"/>
<path d="M0 0 C0 2.64 0 5.28 0 8 C-0.99 8.495 -0.99 8.495 -2 9 C-2.33 6.36 -2.66 3.72 -3 1 C-1 0 -1 0 0 0 Z " fill="#E5E5E5" transform="translate(221,177)"/>
<path d="M0 0 C0.66 0.33 1.32 0.66 2 1 C2 3.31 2 5.62 2 8 C0.02 8.99 0.02 8.99 -2 10 C-1.34 6.7 -0.68 3.4 0 0 Z " fill="#D9D9D9" transform="translate(149,118)"/>
<path d="M0 0 C0.99 0.33 1.98 0.66 3 1 C3 1.66 3 2.32 3 3 C2.34 3 1.68 3 1 3 C0.87625 3.969375 0.7525 4.93875 0.625 5.9375 C0.41875 6.948125 0.2125 7.95875 0 9 C-0.99 9.495 -0.99 9.495 -2 10 C-1.34 6.7 -0.68 3.4 0 0 Z " fill="#1C1B1B" transform="translate(117,88)"/>
<path d="M0 0 C0.66 0.66 1.32 1.32 2 2 C1.7578125 4.1640625 1.7578125 4.1640625 1.125 6.625 C0.92132813 7.44226562 0.71765625 8.25953125 0.5078125 9.1015625 C0.34023437 9.72804688 0.17265625 10.35453125 0 11 C-0.33 11 -0.66 11 -1 11 C-1.14285714 3.57142857 -1.14285714 3.57142857 0 0 Z " fill="#1F1F1F" transform="translate(250,55)"/>
<path d="M0 0 C1.88391785 3.26545761 2.49287967 6.28111761 3 10 C2.01 9.67 1.02 9.34 0 9 C-1.125 3.375 -1.125 3.375 0 0 Z " fill="#292828" transform="translate(181,38)"/>
</svg>
